<?xml version="1.0" encoding="UTF-8"?><svg id="Layer_1" xmlns="http://www.w3.org/2000/svg" xmlns:xlink="http://www.w3.org/1999/xlink" viewBox="0 0 628.82 371"><defs><style>.cls-1,.cls-2,.cls-3,.cls-4,.cls-5,.cls-6,.cls-7,.cls-8,.cls-9,.cls-10,.cls-11{fill:none;}.cls-12,.cls-13,.cls-14,.cls-15,.cls-16,.cls-17,.cls-18,.cls-19{font-weight:500;}.cls-12,.cls-13,.cls-14,.cls-15,.cls-16,.cls-18,.cls-19{font-size:15px;}.cls-12,.cls-17,.cls-19{font-family:Avenir-Medium, Avenir;}.cls-20{letter-spacing:.02em;}.cls-2{stroke:#fddf90;}.cls-2,.cls-3,.cls-4,.cls-6,.cls-7,.cls-8{stroke-linecap:round;stroke-width:.71px;}.cls-2,.cls-3,.cls-4,.cls-6,.cls-7,.cls-8,.cls-9,.cls-10{stroke-linejoin:round;}.cls-3{stroke:#f68d5b;}.cls-4{stroke:#92bfdb;}.cls-5{clip-path:url(#clippath-2);}.cls-13,.cls-14,.cls-15,.cls-16,.cls-18{font-family:Avenir-MediumOblique, Avenir;font-style:oblique;}.cls-13,.cls-21{fill:#92bfdb;}.cls-14,.cls-22{fill:#fddf90;}.cls-23{letter-spacing:-.03em;}.cls-24,.cls-18{fill:#f68d5b;}.cls-25{fill:#fff;}.cls-26,.cls-16{fill:#d73127;}.cls-27{fill:#e0f3f8;}.cls-28,.cls-15{fill:#4675b4;}.cls-6{stroke:#4675b4;}.cls-7{stroke:#d73127;}.cls-8{stroke:#e0f3f8;}.cls-9{stroke-width:1.07px;}.cls-9,.cls-10{stroke:#ebebeb;}.cls-17{font-size:20px;}.cls-17,.cls-19{fill:#4d4d4e;}.cls-10{stroke-width:.53px;}.cls-11{clip-path:url(#clippath);}</style><clipPath id="clippath"><rect class="cls-1" width="713.75" height="371"/></clipPath><clipPath id="clippath-2"><rect class="cls-1" x="51.73" y="23.15" width="576.85" height="315.94"/></clipPath></defs><rect class="cls-25" width="594.66" height="371"/><g class="cls-11"><g class="cls-5"><line class="cls-10" x1="51.73" y1="296.01" x2="628.58" y2="296.01"/><line class="cls-10" x1="51.73" y1="238.56" x2="628.58" y2="238.56"/><line class="cls-10" x1="51.73" y1="181.12" x2="628.58" y2="181.12"/><line class="cls-10" x1="51.73" y1="123.68" x2="628.58" y2="123.68"/><line class="cls-10" x1="51.73" y1="66.24" x2="628.58" y2="66.24"/><line class="cls-9" x1="51.73" y1="324.73" x2="628.58" y2="324.73"/><line class="cls-9" x1="51.73" y1="267.29" x2="628.58" y2="267.29"/><line class="cls-9" x1="51.73" y1="209.84" x2="628.58" y2="209.84"/><line class="cls-9" x1="51.73" y1="152.4" x2="628.58" y2="152.4"/><line class="cls-9" x1="51.73" y1="94.96" x2="628.58" y2="94.96"/><line class="cls-9" x1="51.73" y1="37.51" x2="628.58" y2="37.51"/><line class="cls-9" x1="209.05" y1="339.09" x2="209.05" y2="23.15"/><line class="cls-9" x1="471.25" y1="339.09" x2="471.25" y2="23.15"/><path class="cls-26" d="m150.92,44.58c0-3.13,2.56-5.69,5.69-5.69s5.69,2.56,5.69,5.69-2.56,5.69-5.69,5.69-5.69-2.56-5.69-5.69"/><path class="cls-7" d="m150.92,44.58c0-3.13,2.56-5.69,5.69-5.69s5.69,2.56,5.69,5.69-2.56,5.69-5.69,5.69-5.69-2.56-5.69-5.69"/><path class="cls-27" d="m229.58,291.7c0-3.13,2.56-5.69,5.69-5.69s5.69,2.56,5.69,5.69-2.56,5.69-5.69,5.69-5.69-2.56-5.69-5.69"/><path class="cls-8" d="m229.58,291.7c0-3.13,2.56-5.69,5.69-5.69s5.69,2.56,5.69,5.69-2.56,5.69-5.69,5.69-5.69-2.56-5.69-5.69"/><path class="cls-22" d="m203.36,180.95c0-3.13,2.56-5.69,5.69-5.69s5.69,2.56,5.69,5.69-2.56,5.69-5.69,5.69-5.69-2.56-5.69-5.69"/><path class="cls-2" d="m203.36,180.95c0-3.13,2.56-5.69,5.69-5.69s5.69,2.56,5.69,5.69-2.56,5.69-5.69,5.69-5.69-2.56-5.69-5.69"/><path class="cls-28" d="m255.8,294.17c0-3.13,2.56-5.69,5.69-5.69s5.69,2.56,5.69,5.69-2.56,5.69-5.69,5.69-5.69-2.56-5.69-5.69"/><path class="cls-6" d="m255.8,294.17c0-3.13,2.56-5.69,5.69-5.69s5.69,2.56,5.69,5.69-2.56,5.69-5.69,5.69-5.69-2.56-5.69-5.69"/><path class="cls-24" d="m177.14,295.15c0-3.13,2.56-5.69,5.69-5.69s5.69,2.56,5.69,5.69-2.56,5.68-5.69,5.68-5.69-2.56-5.69-5.68"/><path class="cls-3" d="m177.14,295.15c0-3.13,2.56-5.69,5.69-5.69s5.69,2.56,5.69,5.69-2.56,5.68-5.69,5.68-5.69-2.56-5.69-5.68"/><path class="cls-26" d="m410.94,44.58c0-3.13,2.56-5.69,5.69-5.69s5.69,2.56,5.69,5.69-2.56,5.69-5.69,5.69-5.69-2.56-5.69-5.69"/><path class="cls-7" d="m410.94,44.58c0-3.13,2.56-5.69,5.69-5.69s5.69,2.56,5.69,5.69-2.56,5.69-5.69,5.69-5.69-2.56-5.69-5.69"/><path class="cls-27" d="m476.49,145.91c0-3.13,2.56-5.69,5.69-5.69s5.69,2.56,5.69,5.69-2.56,5.69-5.69,5.69-5.69-2.56-5.69-5.69"/><path class="cls-8" d="m476.49,145.91c0-3.13,2.56-5.69,5.69-5.69s5.69,2.56,5.69,5.69-2.56,5.69-5.69,5.69-5.69-2.56-5.69-5.69"/><path class="cls-22" d="m454.64,109.26c0-3.13,2.56-5.69,5.69-5.69s5.69,2.56,5.69,5.69-2.56,5.69-5.69,5.69-5.69-2.56-5.69-5.69"/><path class="cls-2" d="m454.64,109.26c0-3.13,2.56-5.69,5.69-5.69s5.69,2.56,5.69,5.69-2.56,5.69-5.69,5.69-5.69-2.56-5.69-5.69"/><path class="cls-21" d="m498.34,161.36c0-3.13,2.56-5.69,5.69-5.69s5.69,2.56,5.69,5.69-2.56,5.69-5.69,5.69-5.69-2.56-5.69-5.69"/><path class="cls-4" d="m498.34,161.36c0-3.13,2.56-5.69,5.69-5.69s5.69,2.56,5.69,5.69-2.56,5.69-5.69,5.69-5.69-2.56-5.69-5.69"/><path class="cls-28" d="m520.19,141.14c0-3.13,2.56-5.69,5.69-5.69s5.69,2.56,5.69,5.69-2.56,5.69-5.69,5.69-5.69-2.56-5.69-5.69"/><path class="cls-6" d="m520.19,141.14c0-3.13,2.56-5.69,5.69-5.69s5.69,2.56,5.69,5.69-2.56,5.69-5.69,5.69-5.69-2.56-5.69-5.69"/><path class="cls-24" d="m432.79,105.12c0-3.13,2.56-5.69,5.69-5.69s5.69,2.56,5.69,5.69-2.56,5.69-5.69,5.69-5.69-2.56-5.69-5.69"/><path class="cls-3" d="m432.79,105.12c0-3.13,2.56-5.69,5.69-5.69s5.69,2.56,5.69,5.69-2.56,5.69-5.69,5.69-5.69-2.56-5.69-5.69"/></g><text class="cls-19" transform="translate(34.29 327.96)"><tspan x="0" y="0">0.6</tspan></text><text class="cls-19" transform="translate(34.29 270.52)"><tspan x="0" y="0">0.7</tspan></text><text class="cls-19" transform="translate(34.29 213.07)"><tspan x="0" y="0">0.8</tspan></text><text class="cls-19" transform="translate(34.29 155.63)"><tspan x="0" y="0">0.9</tspan></text><text class="cls-19" transform="translate(34.29 98.19)"><tspan x="0" y="0">1.0</tspan></text><text class="cls-19" transform="translate(34.29 40.74)"><tspan x="0" y="0">1.1</tspan></text><text class="cls-19" transform="translate(139.71 360.32)"><tspan x="0" y="0">No</tspan><tspan class="cls-20" x="20.85" y="0">r</tspan><tspan x="26.76" y="0">mal Sampling</tspan></text><text class="cls-19" transform="translate(349.76 360.32)"><tspan x="0" y="0">Random Undersampling</tspan></text><text class="cls-12" transform="translate(19.65 228.92) rotate(-90)"><tspan x="0" y="0">Cross Entro</tspan><tspan class="cls-23" x="80.02" y="0">p</tspan><tspan x="88.74" y="0">y</tspan></text><text class="cls-16" transform="translate(171.7 49.36)"><tspan x="0" y="0">baseline</tspan></text><text class="cls-18" transform="translate(142.01 287.24)"><tspan x="0" y="0">FNN</tspan></text><text class="cls-14" transform="translate(220.15 185.5)"><tspan x="0" y="0">kNN</tspan></text><text class="cls-13" transform="translate(236.59 279.08)"><tspan x="0" y="0">log reg</tspan></text><text class="cls-15" transform="translate(275.22 308.68)"><tspan x="0" y="0">XGBoost</tspan></text><text class="cls-16" transform="translate(429.36 46.76)"><tspan x="0" y="0">baseline</tspan></text><text class="cls-18" transform="translate(444.06 95.09)"><tspan x="0" y="0">FNN</tspan></text><text class="cls-14" transform="translate(471.03 112.58)"><tspan x="0" y="0">kNN</tspan></text><text class="cls-13" transform="translate(423.2 144.45)"><tspan x="0" y="0">log reg</tspan></text><text class="cls-13" transform="translate(514.43 174.16)"><tspan x="0" y="0">SVM</tspan></text><text class="cls-15" transform="translate(538.35 144.51)"><tspan x="0" y="0">XGBoost</tspan></text><text class="cls-17" transform="translate(150.91 21.45)"><tspan x="0" y="0">Model Comparison (Cross Entropy)</tspan></text></g></svg>