<?xml version="1.0" encoding="UTF-8"?><svg id="Layer_1" xmlns="http://www.w3.org/2000/svg" xmlns:xlink="http://www.w3.org/1999/xlink" viewBox="0 0 628.82 371"><defs><style>.cls-1,.cls-2,.cls-3,.cls-4,.cls-5,.cls-6,.cls-7,.cls-8,.cls-9,.cls-10,.cls-11{fill:none;}.cls-12,.cls-13,.cls-14,.cls-15,.cls-16,.cls-17,.cls-18,.cls-19{font-weight:500;}.cls-12,.cls-13,.cls-14,.cls-15,.cls-16,.cls-18,.cls-19{font-size:15px;}.cls-12,.cls-17,.cls-19{font-family:Avenir-Medium, Avenir;}.cls-20{letter-spacing:.02em;}.cls-2{stroke:#fddf90;}.cls-2,.cls-3,.cls-4,.cls-6,.cls-7,.cls-8{stroke-linecap:round;stroke-width:.71px;}.cls-2,.cls-3,.cls-4,.cls-6,.cls-7,.cls-8,.cls-9,.cls-10{stroke-linejoin:round;}.cls-3{stroke:#f68d5b;}.cls-4{stroke:#92bfdb;}.cls-5{clip-path:url(#clippath-2);}.cls-13,.cls-14,.cls-15,.cls-16,.cls-18{font-family:Avenir-MediumOblique, Avenir;font-style:oblique;}.cls-13,.cls-21{fill:#92bfdb;}.cls-14,.cls-22{fill:#fddf90;}.cls-23,.cls-18{fill:#f68d5b;}.cls-24{fill:#fff;}.cls-25,.cls-16{fill:#d73127;}.cls-26{fill:#e0f3f8;}.cls-27,.cls-15{fill:#4675b4;}.cls-6{stroke:#4675b4;}.cls-7{stroke:#d73127;}.cls-8{stroke:#e0f3f8;}.cls-9{stroke-width:1.07px;}.cls-9,.cls-10{stroke:#ebebeb;}.cls-17{font-size:20px;}.cls-17,.cls-19{fill:#4d4d4e;}.cls-28{letter-spacing:0em;}.cls-29{letter-spacing:0em;}.cls-10{stroke-width:.53px;}.cls-11{clip-path:url(#clippath);}</style><clipPath id="clippath"><rect class="cls-1" x="-4.21" y="7.24" width="708.23" height="371"/></clipPath><clipPath id="clippath-2"><rect class="cls-1" x="42.02" y="30.39" width="576.85" height="315.94"/></clipPath></defs><rect class="cls-24" width="628.82" height="371"/><g class="cls-11"><g class="cls-5"><line class="cls-10" x1="42.02" y1="303.25" x2="618.87" y2="303.25"/><line class="cls-10" x1="42.02" y1="245.8" x2="618.87" y2="245.8"/><line class="cls-10" x1="42.02" y1="188.36" x2="618.87" y2="188.36"/><line class="cls-10" x1="42.02" y1="130.92" x2="618.87" y2="130.92"/><line class="cls-10" x1="42.02" y1="73.48" x2="618.87" y2="73.48"/><line class="cls-9" x1="42.02" y1="331.97" x2="618.87" y2="331.97"/><line class="cls-9" x1="42.02" y1="274.53" x2="618.87" y2="274.53"/><line class="cls-9" x1="42.02" y1="217.08" x2="618.87" y2="217.08"/><line class="cls-9" x1="42.02" y1="159.64" x2="618.87" y2="159.64"/><line class="cls-9" x1="42.02" y1="102.2" x2="618.87" y2="102.2"/><line class="cls-9" x1="42.02" y1="44.75" x2="618.87" y2="44.75"/><line class="cls-9" x1="199.34" y1="346.33" x2="199.34" y2="30.39"/><line class="cls-9" x1="461.54" y1="346.33" x2="461.54" y2="30.39"/><path class="cls-25" d="m141.21,234.66c0-3.13,2.56-5.69,5.69-5.69s5.69,2.56,5.69,5.69-2.56,5.69-5.69,5.69-5.69-2.56-5.69-5.69"/><path class="cls-7" d="m141.21,234.66c0-3.13,2.56-5.69,5.69-5.69s5.69,2.56,5.69,5.69-2.56,5.69-5.69,5.69-5.69-2.56-5.69-5.69"/><path class="cls-26" d="m219.87,193.53c0-3.13,2.56-5.69,5.69-5.69s5.69,2.56,5.69,5.69-2.56,5.69-5.69,5.69-5.69-2.56-5.69-5.69"/><path class="cls-8" d="m219.87,193.53c0-3.13,2.56-5.69,5.69-5.69s5.69,2.56,5.69,5.69-2.56,5.69-5.69,5.69-5.69-2.56-5.69-5.69"/><path class="cls-22" d="m193.65,197.21c0-3.13,2.56-5.69,5.69-5.69s5.69,2.56,5.69,5.69-2.56,5.69-5.69,5.69-5.69-2.56-5.69-5.69"/><path class="cls-2" d="m193.65,197.21c0-3.13,2.56-5.69,5.69-5.69s5.69,2.56,5.69,5.69-2.56,5.69-5.69,5.69-5.69-2.56-5.69-5.69"/><path class="cls-27" d="m246.09,193.99c0-3.13,2.56-5.69,5.69-5.69s5.69,2.56,5.69,5.69-2.56,5.69-5.69,5.69-5.69-2.56-5.69-5.69"/><path class="cls-6" d="m246.09,193.99c0-3.13,2.56-5.69,5.69-5.69s5.69,2.56,5.69,5.69-2.56,5.69-5.69,5.69-5.69-2.56-5.69-5.69"/><path class="cls-23" d="m167.43,194.91c0-3.13,2.56-5.69,5.69-5.69s5.69,2.56,5.69,5.69-2.56,5.69-5.69,5.69-5.69-2.56-5.69-5.69"/><path class="cls-3" d="m167.43,194.91c0-3.13,2.56-5.69,5.69-5.69s5.69,2.56,5.69,5.69-2.56,5.69-5.69,5.69-5.69-2.56-5.69-5.69"/><path class="cls-25" d="m401.23,234.66c0-3.13,2.56-5.69,5.69-5.69s5.69,2.56,5.69,5.69-2.56,5.69-5.69,5.69-5.69-2.56-5.69-5.69"/><path class="cls-7" d="m401.23,234.66c0-3.13,2.56-5.69,5.69-5.69s5.69,2.56,5.69,5.69-2.56,5.69-5.69,5.69-5.69-2.56-5.69-5.69"/><path class="cls-26" d="m466.78,246.09c0-3.13,2.56-5.69,5.69-5.69s5.69,2.56,5.69,5.69-2.56,5.69-5.69,5.69-5.69-2.56-5.69-5.69"/><path class="cls-8" d="m466.78,246.09c0-3.13,2.56-5.69,5.69-5.69s5.69,2.56,5.69,5.69-2.56,5.69-5.69,5.69-5.69-2.56-5.69-5.69"/><path class="cls-22" d="m444.93,257.41c0-3.13,2.56-5.69,5.69-5.69s5.69,2.56,5.69,5.69-2.56,5.69-5.69,5.69-5.69-2.56-5.69-5.69"/><path class="cls-2" d="m444.93,257.41c0-3.13,2.56-5.69,5.69-5.69s5.69,2.56,5.69,5.69-2.56,5.69-5.69,5.69-5.69-2.56-5.69-5.69"/><path class="cls-21" d="m488.63,252.07c0-3.13,2.56-5.69,5.69-5.69s5.69,2.56,5.69,5.69-2.56,5.68-5.69,5.68-5.69-2.56-5.69-5.68"/><path class="cls-4" d="m488.63,252.07c0-3.13,2.56-5.69,5.69-5.69s5.69,2.56,5.69,5.69-2.56,5.68-5.69,5.68-5.69-2.56-5.69-5.68"/><path class="cls-27" d="m510.48,267.06c0-3.13,2.56-5.69,5.69-5.69s5.69,2.56,5.69,5.69-2.56,5.69-5.69,5.69-5.69-2.56-5.69-5.69"/><path class="cls-6" d="m510.48,267.06c0-3.13,2.56-5.69,5.69-5.69s5.69,2.56,5.69,5.69-2.56,5.69-5.69,5.69-5.69-2.56-5.69-5.69"/><path class="cls-23" d="m423.08,248.39c0-3.13,2.56-5.69,5.69-5.69s5.69,2.56,5.69,5.69-2.56,5.69-5.69,5.69-5.69-2.56-5.69-5.69"/><path class="cls-3" d="m423.08,248.39c0-3.13,2.56-5.69,5.69-5.69s5.69,2.56,5.69,5.69-2.56,5.69-5.69,5.69-5.69-2.56-5.69-5.69"/></g><text class="cls-19" transform="translate(24.58 335.2)"><tspan x="0" y="0">0.5</tspan></text><text class="cls-19" transform="translate(24.58 277.76)"><tspan x="0" y="0">0.6</tspan></text><text class="cls-19" transform="translate(24.58 220.31)"><tspan x="0" y="0">0.7</tspan></text><text class="cls-19" transform="translate(24.58 162.87)"><tspan x="0" y="0">0.8</tspan></text><text class="cls-19" transform="translate(24.58 105.43)"><tspan x="0" y="0">0.9</tspan></text><text class="cls-19" transform="translate(24.58 47.98)"><tspan x="0" y="0">1.0</tspan></text><text class="cls-12" transform="translate(15.45 220.42) rotate(-90)"><tspan x="0" y="0">Accu</tspan><tspan class="cls-29" x="33.36" y="0">r</tspan><tspan class="cls-28" x="38.76" y="0">acy</tspan></text><text class="cls-19" transform="translate(126.84 364.79)"><tspan x="0" y="0">No</tspan><tspan class="cls-20" x="20.85" y="0">r</tspan><tspan x="26.76" y="0">mal Sampling</tspan></text><text class="cls-19" transform="translate(336.88 364.79)"><tspan x="0" y="0">Random Undersampling</tspan></text><text class="cls-16" transform="translate(157.98 235.34)"><tspan x="0" y="0">baseline</tspan></text><text class="cls-18" transform="translate(140.65 187.18)"><tspan x="0" y="0">FNN</tspan></text><text class="cls-14" transform="translate(201.35 183.76)"><tspan x="0" y="0">kNN</tspan></text><text class="cls-13" transform="translate(226.35 216.89)"><tspan x="0" y="0">log reg</tspan></text><text class="cls-15" transform="translate(261.38 187.19)"><tspan x="0" y="0">XGBoost</tspan></text><text class="cls-16" transform="translate(403.32 220.49)"><tspan x="0" y="0">baseline</tspan></text><text class="cls-18" transform="translate(390.25 271.28)"><tspan x="0" y="0">FNN</tspan></text><text class="cls-14" transform="translate(451.08 278.15)"><tspan x="0" y="0">kNN</tspan></text><text class="cls-13" transform="translate(454.21 235.34)"><tspan x="0" y="0">log reg</tspan></text><text class="cls-13" transform="translate(506.44 252.05)"><tspan x="0" y="0">SVM</tspan></text><text class="cls-15" transform="translate(527.51 271.28)"><tspan x="0" y="0">XGBoost</tspan></text></g><text class="cls-17" transform="translate(166.59 24.93)"><tspan x="0" y="0">Model Comparison (Accuracy)</tspan></text></svg>